# xmcd
#
# Track frame offsets:
#	150
#	17760
#	30602
#	45161
#	56174
#	69107
#	90380
#	108430
#	121682
#	132631
#	148727
#	160437
#
# Disc length: 2400 seconds
#
# Revision: 0
# Processed by: cddbd v1.4PL0 Copyright (c) Steve Scherf et al.
# Submitted via: EasyCDDAExtractor 4.6.9.1
#
DISCID=9b095e0c
DTITLE=Dave Evans - High Water
DYEAR=2002
DGENRE=Bluegrass
TTITLE0=Stone Coal West Virginia
TTITLE1=Love Will Make It Last
TTITLE2=High Waters (Bad Blood)
TTITLE3=Pure Gallo Wine
TTITLE4=Put My Little Shoes Away
TTITLE5=Cold Dark Cell
TTITLE6=Fair River Side
TTITLE7=Drink Up And Go Home
TTITLE8=Dear Old Dixie
TTITLE9=He Died A Rounder At 21
TTITLE10=Y'All Come
TTITLE11=Humble Carpenter From Galilee
EXTD=
EXTT0=
EXTT1=
EXTT2=
EXTT3=
EXTT4=
EXTT5=
EXTT6=
EXTT7=
EXTT8=
EXTT9=
EXTT10=
EXTT11=
PLAYORDER=
